<?xml version="1.0" standalone="no"?>
<!DOCTYPE svg PUBLIC "-//W3C//DTD SVG 20010904//EN"
 "http://www.w3.org/TR/2001/REC-SVG-20010904/DTD/svg10.dtd">
<svg version="1.0" xmlns="http://www.w3.org/2000/svg"
 width="401.000000pt" height="401.000000pt" viewBox="0 0 401.000000 401.000000"
 preserveAspectRatio="xMidYMid meet">
<metadata>
Created by potrace 1.14, written by Peter Selinger 2001-2017
</metadata>
<g transform="translate(0.000000,401.000000) scale(0.100000,-0.100000)"
fill="#000000" stroke="none">
<path d="M176 3475 c-56 -20 -107 -65 -136 -121 l-25 -48 -3 -986 c-2 -654 1
-1009 8 -1055 52 -347 299 -626 640 -725 109 -32 299 -37 419 -11 268 59 483
227 611 479 17 34 37 62 43 62 39 1 42 15 47 212 4 153 9 199 22 223 76 141
259 169 369 56 60 -63 69 -101 69 -304 0 -132 3 -167 15 -177 8 -6 20 -10 27
-8 7 3 28 -26 50 -71 124 -244 350 -419 613 -474 99 -21 265 -19 367 3 176 39
313 116 446 249 117 117 191 259 239 456 4 17 9 482 10 1034 4 1105 7 1056
-57 1133 -17 20 -55 49 -86 64 -48 23 -63 26 -121 21 -96 -7 -151 -56 -101
-91 17 -12 25 -12 54 0 87 37 179 -4 218 -96 21 -52 21 -1527 0 -1509 -8 6
-14 15 -14 20 0 18 -72 120 -127 179 -295 319 -772 379 -1134 141 -172 -113
-332 -332 -365 -501 -4 -16 -9 -30 -11 -30 -3 0 -24 16 -47 35 -132 108 -306
105 -423 -8 -18 -17 -34 -29 -36 -26 -1 2 -13 37 -27 78 -53 160 -164 313
-305 417 -91 67 -118 84 -195 115 -124 49 -211 64 -360 63 -282 -3 -544 -147
-711 -393 -27 -39 -49 -75 -49 -81 0 -5 -4 -11 -9 -15 -13 -8 -13 1448 0 1498
14 53 63 105 111 118 41 10 114 4 123 -11 8 -13 45 1 56 22 31 57 -113 100
-215 63z m846 -1289 c55 -10 118 -29 118 -35 0 -3 -227 -233 -503 -509 l-504
-504 -11 44 c-24 94 -30 146 -27 237 2 53 6 105 8 116 42 178 115 315 227 425
70 69 84 80 156 122 105 60 223 99 339 110 37 4 167 0 197 -6z m2228 -2 c19
-3 40 -7 45 -8 6 -1 25 -6 43 -10 17 -4 32 -11 32 -14 0 -4 -227 -234 -504
-511 -420 -420 -505 -500 -510 -484 -21 65 -33 176 -31 266 11 337 231 628
555 733 109 36 260 47 370 28z m-1935 -108 c96 -60 98 -65 47 -116 -46 -46
-50 -60 -26 -84 23 -23 30 -21 83 29 56 52 51 54 121 -39 231 -306 201 -749
-70 -1026 -105 -107 -194 -164 -326 -209 -82 -27 -105 -31 -209 -36 -80 -4
-152 2 -240 20 -87 18 -287 126 -340 185 l-19 21 416 417 c228 229 418 425
421 434 4 11 -2 23 -15 33 -19 13 -25 13 -44 0 -12 -8 -205 -197 -429 -421
-406 -407 -406 -407 -423 -384 -27 36 -92 143 -92 151 0 9 1061 1069 1069
1068 3 0 37 -20 76 -43z m2273 -29 c23 -17 42 -34 42 -39 0 -5 -18 -27 -40
-49 -44 -44 -48 -59 -24 -83 23 -24 34 -20 86 31 l47 46 21 -24 c112 -130 177
-274 198 -434 64 -487 -328 -919 -818 -900 -112 4 -122 5 -208 31 -97 28 -268
126 -312 179 -12 14 33 62 409 439 389 389 422 425 412 445 -11 20 -22 25 -48
22 -6 -1 -199 -189 -428 -418 l-416 -416 -35 49 c-58 81 -77 123 -63 140 7 8
246 248 532 534 l519 519 41 -21 c23 -11 61 -34 85 -51z"/>
</g>
</svg>
